<svg width="16" height="16" viewBox="0 0 16 16" fill="none" xmlns="http://www.w3.org/2000/svg">
<path d="M14 11.798C14 12.014 13.9519 12.236 13.8498 12.452C13.7476 12.668 13.6154 12.872 13.4411 13.064C13.1467 13.388 12.8223 13.622 12.4557 13.772C12.0951 13.922 11.7045 14 11.2839 14C10.671 14 10.016 13.856 9.325 13.562C8.63393 13.268 7.94293 12.872 7.25787 12.374C6.56685 11.87 5.91187 11.312 5.28693 10.694C4.668 10.07 4.10917 9.416 3.61041 8.732C3.11767 8.048 2.72108 7.364 2.43265 6.686C2.14421 6.002 2 5.348 2 4.724C2 4.316 2.07211 3.926 2.21633 3.566C2.36054 3.2 2.58889 2.864 2.90736 2.564C3.29194 2.186 3.71257 2 4.15723 2C4.32549 2 4.49374 2.036 4.64397 2.108C4.8002 2.18 4.93841 2.288 5.04657 2.444L6.44066 4.406C6.54883 4.556 6.62694 4.694 6.681 4.826C6.73513 4.952 6.76513 5.078 6.76513 5.192C6.76513 5.336 6.72307 5.48 6.63896 5.618C6.56084 5.756 6.44667 5.9 6.30245 6.044L5.84577 6.518C5.77967 6.584 5.74963 6.662 5.74963 6.758C5.74963 6.806 5.75563 6.848 5.76765 6.896C5.78568 6.944 5.80371 6.98 5.81573 7.016C5.92389 7.214 6.11017 7.472 6.37456 7.784C6.64497 8.096 6.9334 8.414 7.24587 8.732C7.57033 9.05 7.8828 9.344 8.20133 9.614C8.5138 9.878 8.77213 10.058 8.97647 10.166C9.00653 10.178 9.04253 10.196 9.0846 10.214C9.13267 10.232 9.1808 10.238 9.23487 10.238C9.337 10.238 9.41513 10.202 9.4812 10.136L9.93793 9.686C10.0881 9.536 10.2323 9.422 10.3705 9.35C10.5087 9.266 10.647 9.224 10.7972 9.224C10.9114 9.224 11.0315 9.248 11.1637 9.302C11.2959 9.356 11.4341 9.434 11.5844 9.536L13.5733 10.946C13.7296 11.054 13.8377 11.18 13.9039 11.33C13.9639 11.48 14 11.63 14 11.798Z" stroke="#1FB7F0" stroke-width="1.5" stroke-miterlimit="10"/>
</svg>
