<svg width="56" height="56" viewBox="0 0 56 56" fill="none" xmlns="http://www.w3.org/2000/svg">
<rect width="56" height="56" rx="24" fill="#56CCF2"/>
<path d="M40 19C39.0424 19.6755 37.9821 20.1921 36.86 20.53C36.2577 19.8375 35.4573 19.3467 34.567 19.1239C33.6767 18.9012 32.7395 18.9572 31.8821 19.2845C31.0247 19.6117 30.2884 20.1944 29.773 20.9537C29.2575 21.713 28.9877 22.6123 29 23.53V24.53C27.2426 24.5756 25.5013 24.1858 23.931 23.3954C22.3607 22.6051 21.0103 21.4386 20 20C20 20 16 29 25 33C22.9405 34.398 20.4872 35.0989 18 35C27 40 38 35 38 23.5C37.9991 23.2215 37.9723 22.9436 37.92 22.67C38.9406 21.6635 39.6608 20.3927 40 19Z" stroke="white" stroke-linecap="round" stroke-linejoin="round"/>
</svg>
