<svg width="56" height="56" viewBox="0 0 56 56" fill="none" xmlns="http://www.w3.org/2000/svg">
<rect width="56" height="56" rx="24" fill="#27AE60"/>
<path fill-rule="evenodd" clip-rule="evenodd" d="M35.0859 20.9068C34.1634 19.9827 33.0658 19.2499 31.8567 18.7509C30.6476 18.2519 29.3511 17.9967 28.0421 18C22.5535 18 18.0854 22.4458 18.0832 27.9106C18.0832 29.6571 18.5413 31.3617 19.4121 32.8653L18 38L23.279 36.6211C24.7392 37.4122 26.3751 37.8271 28.0377 37.8278H28.0421C33.5296 37.8278 37.9977 33.382 38 27.9172C38.0037 26.615 37.7481 25.325 37.248 24.1217C36.7478 22.9185 36.013 21.8258 35.0859 20.9068ZM28.0421 36.1552H28.0388C26.5563 36.1554 25.1011 35.7584 23.8258 35.006L23.5241 34.8271L20.3916 35.6452L21.2268 32.6059L21.0305 32.2946C20.2016 30.9813 19.7629 29.4615 19.7648 27.9106C19.7671 23.3688 23.4797 19.6737 28.0455 19.6737C29.1328 19.6713 30.2098 19.8835 31.2142 20.2982C32.2186 20.7128 33.1304 21.3216 33.8968 22.0892C34.6673 22.8532 35.278 23.7617 35.6937 24.762C36.1093 25.7623 36.3216 26.8347 36.3183 27.9172C36.3161 32.4591 32.6034 36.1552 28.0421 36.1552ZM32.5823 29.985C32.3327 29.8602 31.1103 29.2619 30.8818 29.1791C30.6544 29.0963 30.4892 29.0554 30.3228 29.3027C30.1564 29.55 29.6794 30.1075 29.5341 30.2731C29.3888 30.4387 29.2435 30.4586 28.995 30.335C28.7465 30.2113 27.9445 29.9497 26.9939 29.1062C26.254 28.4493 25.7548 27.639 25.6095 27.3906C25.4642 27.1422 25.594 27.0086 25.7193 26.885C25.8314 26.7746 25.9678 26.5957 26.0921 26.4511C26.2163 26.3065 26.2573 26.2038 26.3405 26.0382C26.4237 25.8726 26.3827 25.728 26.3195 25.6043C26.2573 25.4796 25.7593 24.2608 25.5518 23.7651C25.3511 23.2849 25.1459 23.3489 24.9928 23.3423C24.8342 23.3358 24.6756 23.3329 24.5169 23.3334C24.3907 23.3366 24.2666 23.3657 24.1522 23.4189C24.0379 23.4721 23.9358 23.5483 23.8525 23.6425C23.6239 23.8909 22.9817 24.4893 22.9817 25.7081C22.9817 26.9269 23.8735 28.1049 23.9978 28.2705C24.122 28.4361 25.7526 30.9366 28.2485 32.0097C28.843 32.2647 29.3067 32.4171 29.6672 32.5319C30.2629 32.7207 30.8053 32.6931 31.2346 32.6302C31.7127 32.5595 32.7066 32.0318 32.914 31.4533C33.1214 30.8748 33.1214 30.3791 33.0593 30.2753C32.9972 30.1716 32.8297 30.1086 32.5823 29.985Z" fill="white"/>
</svg>
