<svg width="32" height="32" viewBox="0 0 32 32" fill="none" xmlns="http://www.w3.org/2000/svg">
<path d="M28 23.596C28 24.028 27.9039 24.472 27.6996 24.904C27.4952 25.336 27.2308 25.744 26.8823 26.128C26.2935 26.776 25.6445 27.244 24.9113 27.544C24.1903 27.844 23.4091 28 22.5679 28C21.342 28 20.032 27.712 18.65 27.124C17.2679 26.536 15.8859 25.744 14.5157 24.748C13.1337 23.74 11.8237 22.624 10.5739 21.388C9.336 20.14 8.21833 18.832 7.22083 17.464C6.23535 16.096 5.44216 14.728 4.86529 13.372C4.28843 12.004 4 10.696 4 9.448C4 8.632 4.14421 7.852 4.43265 7.132C4.72108 6.4 5.17777 5.728 5.81472 5.128C6.58388 4.372 7.42513 4 8.31447 4C8.65097 4 8.98748 4.072 9.28793 4.216C9.6004 4.36 9.87681 4.576 10.0931 4.888L12.8813 8.812C13.0977 9.112 13.2539 9.388 13.362 9.652C13.4703 9.904 13.5303 10.156 13.5303 10.384C13.5303 10.672 13.4461 10.96 13.2779 11.236C13.1217 11.512 12.8933 11.8 12.6049 12.088L11.6915 13.036C11.5593 13.168 11.4993 13.324 11.4993 13.516C11.4993 13.612 11.5113 13.696 11.5353 13.792C11.5714 13.888 11.6074 13.96 11.6315 14.032C11.8478 14.428 12.2203 14.944 12.7491 15.568C13.2899 16.192 13.8668 16.828 14.4917 17.464C15.1407 18.1 15.7656 18.688 16.4027 19.228C17.0276 19.756 17.5443 20.116 17.9529 20.332C18.0131 20.356 18.0851 20.392 18.1692 20.428C18.2653 20.464 18.3616 20.476 18.4697 20.476C18.674 20.476 18.8303 20.404 18.9624 20.272L19.8759 19.372C20.1763 19.072 20.4647 18.844 20.7411 18.7C21.0175 18.532 21.294 18.448 21.5944 18.448C21.8228 18.448 22.0631 18.496 22.3275 18.604C22.5919 18.712 22.8683 18.868 23.1688 19.072L27.1467 21.892C27.4592 22.108 27.6755 22.36 27.8077 22.66C27.9279 22.96 28 23.26 28 23.596Z" stroke="#1FB7F0" stroke-width="1.5" stroke-miterlimit="10"/>
</svg>
