<svg width="56" height="56" viewBox="0 0 56 56" fill="none" xmlns="http://www.w3.org/2000/svg">
<rect width="56" height="56" rx="24" fill="#1FB7F0"/>
<mask id="mask0_246_204" style="mask-type:alpha" maskUnits="userSpaceOnUse" x="19" y="18" width="18" height="21">
<path fill-rule="evenodd" clip-rule="evenodd" d="M20.1716 19.1716C19 20.3432 19 22.2288 19 26V36.601C19 38.1259 20.6382 39.0899 21.9713 38.3493L27.0287 35.5396C27.6328 35.204 28.3672 35.204 28.9713 35.5396L34.0287 38.3493C35.3618 39.0899 37 38.1259 37 36.601V26C37 22.2288 37 20.3432 35.8284 19.1716C34.6569 18 32.7712 18 29 18H27C23.2288 18 21.3431 18 20.1716 19.1716Z" fill="white"/>
</mask>
<g mask="url(#mask0_246_204)">
<path d="M35.8284 19.1716L36.8891 18.1109L35.8284 19.1716ZM27.0287 35.5396L27.7572 36.8508L27.0287 35.5396ZM28.9713 35.5396L28.2428 36.8508L28.9713 35.5396ZM21.9713 38.3493L22.6998 39.6605L21.9713 38.3493ZM20.5 26C20.5 24.072 20.5032 22.7769 20.6331 21.8108C20.7572 20.8879 20.9716 20.4929 21.2322 20.2322L19.1109 18.1109C18.2 19.0219 17.8286 20.1555 17.6598 21.411C17.4968 22.6235 17.5 24.1568 17.5 26H20.5ZM20.5 36.601V26H17.5V36.601H20.5ZM22.6998 39.6605L27.7572 36.8508L26.3003 34.2284L21.2428 37.038L22.6998 39.6605ZM28.2428 36.8508L33.3003 39.6605L34.7572 37.038L29.6998 34.2284L28.2428 36.8508ZM35.5 26V36.601H38.5V26H35.5ZM34.7678 20.2322C35.0284 20.4929 35.2428 20.8879 35.3669 21.8108C35.4968 22.7769 35.5 24.072 35.5 26H38.5C38.5 24.1568 38.5032 22.6235 38.3402 21.411C38.1714 20.1555 37.8 19.0219 36.8891 18.1109L34.7678 20.2322ZM29 19.5C30.928 19.5 32.2231 19.5032 33.1892 19.6331C34.1121 19.7572 34.5071 19.9716 34.7678 20.2322L36.8891 18.1109C35.9781 17.2 34.8445 16.8286 33.589 16.6598C32.3765 16.4968 30.8432 16.5 29 16.5V19.5ZM27 19.5H29V16.5H27V19.5ZM21.2322 20.2322C21.4929 19.9716 21.8879 19.7572 22.8108 19.6331C23.7769 19.5032 25.072 19.5 27 19.5V16.5C25.1568 16.5 23.6235 16.4968 22.411 16.6598C21.1555 16.8286 20.0219 17.2 19.1109 18.1109L21.2322 20.2322ZM33.3003 39.6605C35.6331 40.9566 38.5 39.2697 38.5 36.601H35.5C35.5 36.9822 35.0904 37.2232 34.7572 37.038L33.3003 39.6605ZM27.7572 36.8508C27.9082 36.7669 28.0918 36.7669 28.2428 36.8508L29.6998 34.2284C28.6427 33.6411 27.3573 33.6411 26.3003 34.2284L27.7572 36.8508ZM17.5 36.601C17.5 39.2697 20.3669 40.9566 22.6998 39.6605L21.2428 37.038C20.9096 37.2232 20.5 36.9822 20.5 36.601H17.5Z" fill="white"/>
<path d="M25.75 26.25H30.25" stroke="white" stroke-width="1.5" stroke-linecap="round"/>
</g>
</svg>
