<svg width="56" height="56" viewBox="0 0 56 56" fill="none" xmlns="http://www.w3.org/2000/svg">
<rect width="56" height="56" rx="24" fill="#F2F2F2"/>
<mask id="mask0_231_127" style="mask-type:alpha" maskUnits="userSpaceOnUse" x="18" y="19" width="20" height="18">
<path fill-rule="evenodd" clip-rule="evenodd" d="M33.8442 22.108C34.2542 22.1643 34.5983 22.2501 34.9134 22.3806C36.1386 22.8881 37.1119 23.8614 37.6194 25.0866C38 26.0054 38 27.1703 38 29.5C38 31.8297 38 32.9946 37.6194 33.9134C37.1119 35.1386 36.1386 36.1119 34.9134 36.6194C33.9946 37 32.8297 37 30.5 37H25.5C23.1703 37 22.0054 37 21.0866 36.6194C19.8614 36.1119 18.8881 35.1386 18.3806 33.9134C18 32.9946 18 31.8297 18 29.5C18 27.1703 18 26.0054 18.3806 25.0866C18.8881 23.8614 19.8614 22.8881 21.0866 22.3806C21.4017 22.2501 21.7457 22.1643 22.1558 22.108C22.4852 20.9512 22.7363 20.2905 23.2225 19.8275C23.3801 19.6774 23.5536 19.5449 23.7398 19.4324C24.4554 19 25.3705 19 27.2009 19H28.7991C30.6295 19 31.5446 19 32.2602 19.4324C32.4464 19.5449 32.6199 19.6774 32.7775 19.8275C33.2637 20.2905 33.5148 20.9512 33.8442 22.108Z" fill="white"/>
</mask>
<g mask="url(#mask0_231_127)">
<path d="M33.8442 22.108L32.4016 22.5188L32.6698 23.4607L33.64 23.594L33.8442 22.108ZM34.9134 22.3806L35.4874 20.9948L34.9134 22.3806ZM37.6194 25.0866L36.2336 25.6606L37.6194 25.0866ZM37.6194 33.9134L36.2336 33.3394L37.6194 33.9134ZM34.9134 36.6194L35.4874 38.0052L34.9134 36.6194ZM21.0866 36.6194L20.5126 38.0052L21.0866 36.6194ZM18.3806 33.9134L19.7664 33.3394L18.3806 33.9134ZM18.3806 25.0866L16.9948 24.5126L18.3806 25.0866ZM21.0866 22.3806L21.6606 23.7664L21.0866 22.3806ZM22.1558 22.108L22.36 23.594L23.3302 23.4607L23.5984 22.5188L22.1558 22.108ZM23.2225 19.8275L24.2569 20.9138L23.2225 19.8275ZM23.7398 19.4324L24.5156 20.7162L23.7398 19.4324ZM32.2602 19.4324L31.4844 20.7162L32.2602 19.4324ZM32.7775 19.8275L33.812 18.7413L32.7775 19.8275ZM33.64 23.594C33.9576 23.6376 34.1712 23.6967 34.3394 23.7664L35.4874 20.9948C35.0254 20.8034 34.551 20.691 34.0484 20.6219L33.64 23.594ZM34.3394 23.7664C35.197 24.1217 35.8783 24.803 36.2336 25.6606L39.0052 24.5126C38.3455 22.9199 37.0801 21.6545 35.4874 20.9948L34.3394 23.7664ZM36.2336 25.6606C36.3356 25.9068 36.4135 26.2454 36.4559 26.8663C36.4992 27.5007 36.5 28.3146 36.5 29.5H39.5C39.5 28.3557 39.5008 27.4223 39.4489 26.6621C39.3962 25.8885 39.2838 25.1852 39.0052 24.5126L36.2336 25.6606ZM36.5 29.5C36.5 30.6854 36.4992 31.4993 36.4559 32.1337C36.4135 32.7546 36.3356 33.0932 36.2336 33.3394L39.0052 34.4874C39.2838 33.8148 39.3962 33.1115 39.4489 32.3379C39.5008 31.5777 39.5 30.6443 39.5 29.5H36.5ZM36.2336 33.3394C35.8783 34.197 35.197 34.8783 34.3394 35.2336L35.4874 38.0052C37.0801 37.3455 38.3455 36.0801 39.0052 34.4874L36.2336 33.3394ZM34.3394 35.2336C34.0932 35.3356 33.7546 35.4135 33.1337 35.4559C32.4993 35.4992 31.6854 35.5 30.5 35.5V38.5C31.6443 38.5 32.5777 38.5008 33.3379 38.4489C34.1115 38.3962 34.8148 38.2838 35.4874 38.0052L34.3394 35.2336ZM30.5 35.5H25.5V38.5H30.5V35.5ZM25.5 35.5C24.3146 35.5 23.5007 35.4992 22.8663 35.4559C22.2454 35.4135 21.9068 35.3356 21.6606 35.2336L20.5126 38.0052C21.1852 38.2838 21.8885 38.3962 22.6621 38.4489C23.4223 38.5008 24.3557 38.5 25.5 38.5V35.5ZM21.6606 35.2336C20.803 34.8783 20.1217 34.197 19.7664 33.3394L16.9948 34.4874C17.6545 36.0801 18.9199 37.3455 20.5126 38.0052L21.6606 35.2336ZM19.7664 33.3394C19.6645 33.0932 19.5865 32.7546 19.5441 32.1337C19.5008 31.4993 19.5 30.6854 19.5 29.5H16.5C16.5 30.6443 16.4992 31.5777 16.5511 32.3379C16.6038 33.1115 16.7162 33.8148 16.9948 34.4874L19.7664 33.3394ZM19.5 29.5C19.5 28.3146 19.5008 27.5007 19.5441 26.8663C19.5865 26.2454 19.6645 25.9068 19.7664 25.6606L16.9948 24.5126C16.7162 25.1852 16.6038 25.8885 16.5511 26.6621C16.4992 27.4223 16.5 28.3557 16.5 29.5H19.5ZM19.7664 25.6606C20.1217 24.803 20.803 24.1217 21.6606 23.7664L20.5126 20.9948C18.9199 21.6545 17.6545 22.9199 16.9948 24.5126L19.7664 25.6606ZM21.6606 23.7664C21.8289 23.6967 22.0425 23.6376 22.36 23.594L21.9516 20.6219C21.4491 20.691 20.9746 20.8034 20.5126 20.9948L21.6606 23.7664ZM23.5984 22.5188C23.9395 21.3214 24.1067 21.0568 24.2569 20.9138L22.188 18.7413C21.3658 19.5243 21.0311 20.5809 20.7132 21.6971L23.5984 22.5188ZM24.2569 20.9138C24.3357 20.8387 24.4225 20.7725 24.5156 20.7162L22.9641 18.1486C22.6846 18.3174 22.4244 18.5162 22.188 18.7413L24.2569 20.9138ZM24.5156 20.7162C24.6104 20.6589 24.7732 20.5889 25.1998 20.5468C25.6561 20.5017 26.256 20.5 27.2009 20.5V17.5C26.3154 17.5 25.5426 17.4983 24.9048 17.5613C24.2374 17.6273 23.5848 17.7735 22.9641 18.1486L24.5156 20.7162ZM27.2009 20.5H28.7991V17.5H27.2009V20.5ZM28.7991 20.5C29.744 20.5 30.3439 20.5017 30.8002 20.5468C31.2269 20.5889 31.3896 20.6589 31.4844 20.7162L33.036 18.1486C32.4152 17.7735 31.7626 17.6273 31.0952 17.5613C30.4574 17.4983 29.6846 17.5 28.7991 17.5V20.5ZM31.4844 20.7162C31.5775 20.7725 31.6643 20.8387 31.7431 20.9138L33.812 18.7413C33.5756 18.5162 33.3154 18.3174 33.036 18.1486L31.4844 20.7162ZM31.7431 20.9138C31.8933 21.0568 32.0606 21.3214 32.4016 22.5188L35.2868 21.6971C34.969 20.5809 34.6342 19.5243 33.812 18.7413L31.7431 20.9138Z" fill="#828282"/>
<path d="M31.25 29C31.25 27.2051 29.7949 25.75 28 25.75C26.2051 25.75 24.75 27.2051 24.75 29C24.75 30.7949 26.2051 32.25 28 32.25C29.7949 32.25 31.25 30.7949 31.25 29Z" stroke="#828282" stroke-width="1.5"/>
</g>
</svg>
