<svg width="56" height="56" viewBox="0 0 56 56" fill="none" xmlns="http://www.w3.org/2000/svg">
<rect width="56" height="56" rx="24" fill="#1FB7F0"/>
<path d="M31.25 21C31.25 22.7949 29.7949 24.25 28 24.25C26.2051 24.25 24.75 22.7949 24.75 21C24.75 19.2051 26.2051 17.75 28 17.75C29.7949 17.75 31.25 19.2051 31.25 21Z" stroke="white" stroke-width="1.5"/>
<path d="M34.25 32C34.25 33.0756 33.6409 34.1202 32.5138 34.9252C31.3882 35.7293 29.7947 36.25 28 36.25C26.2053 36.25 24.6118 35.7293 23.4862 34.9252C22.3591 34.1202 21.75 33.0756 21.75 32C21.75 30.9244 22.3591 29.8798 23.4862 29.0748C24.6118 28.2707 26.2053 27.75 28 27.75C29.7947 27.75 31.3882 28.2707 32.5138 29.0748C33.6409 29.8798 34.25 30.9244 34.25 32Z" stroke="white" stroke-width="1.5"/>
</svg>
