<svg width="56" height="56" viewBox="0 0 56 56" fill="none" xmlns="http://www.w3.org/2000/svg">
<rect x="0.5" y="0.5" width="55" height="55" rx="23.5" fill="white" stroke="#1FB7F0"/>
<path d="M34 19.75H22C20.2051 19.75 18.75 21.2051 18.75 23V33C18.75 34.7949 20.2051 36.25 22 36.25H34C35.7949 36.25 37.25 34.7949 37.25 33V23C37.25 21.2051 35.7949 19.75 34 19.75Z" stroke="#1FB7F0" stroke-width="1.5"/>
<path d="M22.75 17.75V21.25" stroke="#1FB7F0" stroke-width="1.5" stroke-linecap="round"/>
<path d="M19.75 24.25H36.25" stroke="#1FB7F0" stroke-width="1.5" stroke-linecap="round"/>
<path d="M33.75 17.75V21.25" stroke="#1FB7F0" stroke-width="1.5" stroke-linecap="round"/>
<path d="M24.25 29C24.6642 29 25 28.6642 25 28.25C25 27.8358 24.6642 27.5 24.25 27.5C23.8358 27.5 23.5 27.8358 23.5 28.25C23.5 28.6642 23.8358 29 24.25 29Z" fill="#1FB7F0"/>
<path d="M28.25 29C28.6642 29 29 28.6642 29 28.25C29 27.8358 28.6642 27.5 28.25 27.5C27.8358 27.5 27.5 27.8358 27.5 28.25C27.5 28.6642 27.8358 29 28.25 29Z" fill="#1FB7F0"/>
<path d="M32.25 29C32.6642 29 33 28.6642 33 28.25C33 27.8358 32.6642 27.5 32.25 27.5C31.8358 27.5 31.5 27.8358 31.5 28.25C31.5 28.6642 31.8358 29 32.25 29Z" fill="#1FB7F0"/>
<path d="M24.25 33C24.6642 33 25 32.6642 25 32.25C25 31.8358 24.6642 31.5 24.25 31.5C23.8358 31.5 23.5 31.8358 23.5 32.25C23.5 32.6642 23.8358 33 24.25 33Z" fill="#1FB7F0"/>
<path d="M28.25 33C28.6642 33 29 32.6642 29 32.25C29 31.8358 28.6642 31.5 28.25 31.5C27.8358 31.5 27.5 31.8358 27.5 32.25C27.5 32.6642 27.8358 33 28.25 33Z" fill="#1FB7F0"/>
<path d="M32.25 33C32.6642 33 33 32.6642 33 32.25C33 31.8358 32.6642 31.5 32.25 31.5C31.8358 31.5 31.5 31.8358 31.5 32.25C31.5 32.6642 31.8358 33 32.25 33Z" fill="#1FB7F0"/>
</svg>
